<svg xmlns="http://www.w3.org/2000/svg" width="24px" height="24px" viewBox="0 0 20 20" class="icon-svg">
    <path d="M 5.75 1 C 6.164062 1 6.5 1.335938 6.5 1.75 L 6.5 3.601562 L 8.21875 3.257812 C 9.871094 2.925781 11.582031 3.082031 13.144531 3.707031 L 13.558594 3.875 C 14.984375 4.441406 16.550781 4.550781 18.039062 4.175781 C 18.671875 4.019531 19.179688 4.703125 18.84375 5.261719 L 17.566406 7.390625 C 17.222656 7.960938 17.050781 8.246094 17.011719 8.554688 C 16.996094 8.683594 16.996094 8.816406 17.011719 8.945312 C 17.050781 9.253906 17.222656 9.539062 17.566406 10.109375 L 19.125 12.707031 C 19.4375 13.226562 19.15625 13.898438 18.570312 14.042969 L 18.472656 14.070312 C 16.703125 14.511719 14.839844 14.386719 13.144531 13.707031 C 11.582031 13.082031 9.871094 12.925781 8.21875 13.257812 L 6.5 13.601562 L 6.5 21.75 C 6.5 22.164062 6.164062 22.5 5.75 22.5 C 5.335938 22.5 5 22.164062 5 21.75 L 5 1.75 C 5 1.335938 5.335938 1 5.75 1 Z M 5.75 1 "/>
</svg>